<?xml version="1.0" standalone="no"?>
<!DOCTYPE svg PUBLIC "-//W3C//DTD SVG 20010904//EN"
 "http://www.w3.org/TR/2001/REC-SVG-20010904/DTD/svg10.dtd">
<svg version="1.0" xmlns="http://www.w3.org/2000/svg"
 width="1024.000000pt" height="1024.000000pt" viewBox="0 0 1024.000000 1024.000000"
 preserveAspectRatio="xMidYMid meet">
<metadata>
Created by potrace 1.14, written by Peter Selinger 2001-2017
</metadata>
<g transform="translate(0.000000,1024.000000) scale(0.100000,-0.100000)"
fill="#000000" stroke="none">
<path d="M332 10049 c168 -166 633 -625 1625 -1605 935 -925 1485 -1468 1544
-1527 38 -38 69 -74 69 -80 0 -7 -24 -22 -52 -35 l-52 -23 -70 70 c-171 169
-699 690 -1149 1134 -268 265 -594 587 -723 715 -129 127 -240 232 -245 232
-5 0 -9 4 -9 9 0 6 -71 80 -157 165 -322 317 -793 782 -950 938 l-162 161 -1
-5064 0 -5064 310 310 c170 170 306 313 303 318 -3 6 -1 7 4 4 12 -7 46 26 38
36 -3 4 -2 5 2 2 9 -7 323 307 317 317 -3 5 -1 7 4 6 6 -2 572 560 1259 1249
l1248 1252 -1 -88 0 -89 -855 -856 c-2176 -2181 -2401 -2409 -2387 -2418 10
-7 9 -8 -4 -4 -19 6 -108 -72 -108 -93 0 -7 -5 -9 -10 -6 -5 3 -10 1 -10 -4 0
-7 1558 -11 5065 -11 l5065 0 -1 43 c-1 47 52 -7 -1430 1457 -336 333 -696
688 -799 790 -284 281 -1409 1392 -1460 1442 -71 70 -90 101 -75 121 15 20 8
67 -11 74 -18 7 -18 23 0 23 8 0 16 4 18 10 2 5 154 -140 339 -323 185 -183
605 -597 933 -922 648 -640 932 -920 1747 -1725 292 -289 575 -569 630 -623
54 -53 100 -97 103 -97 3 0 6 2225 6 4945 0 2720 -2 4945 -4 4945 -3 0 -1338
-1335 -2845 -2848 -677 -679 -815 -813 -833 -809 l-23 4 23 8 c13 4 22 16 23
29 0 11 2 29 4 39 2 9 0 17 -5 17 -4 0 -6 9 -3 20 3 11 12 20 19 20 9 0 14 11
14 28 0 38 12 52 48 56 46 6 56 15 38 34 -13 15 140 172 1677 1713 931 933
1708 1713 1726 1733 l35 36 -4997 0 -4997 0 192 -191z"/>
</g>
</svg>
